#!OML:ASF H:\Not Pregnant\Project 1\Capture day 1\Session 1\non-pregnant.ASF
:FULLY-SPECIFIED
:DEGREES
910
root 20.2253 15.7945 26.3768 177.555 -71.9488 -165.349
lowerback -9.14538 4.17351 5.54543
upperback -9.57413 4.682 -0.676493
thorax -4.41806 1.76653 -3.51896
lowerneck 11.4921 -6.97195 -31.5741
upperneck 8.69073 -18.0603 35.9033
head 7.30409 -10.7458 18.2265
rclavicle 4.6118e-014 1.74931e-014
rhumerus -41.3946 -11.9922 -83.3627
rradius 27.0698
rwrist 21.7121
rhand -15.2158 -6.9953
rfingers 7.12502
rthumb 10.9566 -36.6894
lclavicle 4.6118e-014 1.74931e-014
lhumerus -46.6142 -3.03301 89.9821
lradius 35.0384
lwrist 39.1821
lhand -21.6724 -8.43164
lfingers 7.12502
lthumb 4.72513 21.4957
rfemur -20.4837 -2.04483 27.1861
rtibia 29.2672
rfoot -19.5875 -2.85282
rtoes -15.3851
lfemur -26.7045 -3.61407 -13.3754
ltibia 34.5204
lfoot -23.7702 0.680985
ltoes -20.9733
911
root 20.2068 15.8089 26.3725 177.397 -72.2799 -164.99
lowerback -9.38313 4.21295 5.5921
upperback -9.71658 4.70222 -0.716802
thorax -4.43292 1.76233 -3.57513
lowerneck 11.5973 -7.04909 -31.6182
upperneck 8.6362 -18.1908 35.8568
head 7.32116 -10.8166 18.1847
rclavicle -1.07344e-014 -1.27222e-014
rhumerus -42.0149 -11.5269 -83.977
rradius 27.308
rwrist 21.2072
rhand -15.0688 -6.69467
rfingers 7.12502
rthumb 11.0984 -36.3812
lclavicle -1.07344e-014 -1.27222e-014
lhumerus -47.2255 -3.56119 90.3205
lradius 35.4447
lwrist 39.3946
lhand -20.5735 -8.47001
lfingers 7.12502
lthumb 5.78616 21.431
rfemur -20.3944 -2.5654 27.276
rtibia 28.8193
rfoot -19.5346 -2.57248
rtoes -15.2819
lfemur -26.7764 -2.96489 -13.4081
ltibia 34.2312
lfoot -23.3576 0.684245
ltoes -21.3043
912
root 20.1885 15.8218 26.3697 177.179 -72.5953 -164.59
lowerback -9.5813 4.25378 5.67795
upperback -9.85033 4.72569 -0.760705
thorax -4.45728 1.75772 -3.65874
lowerneck 11.7117 -7.11941 -31.6538
upperneck 8.5418 -18.3032 35.8278
head 7.31811 -10.8786 18.1517
rclavicle -1.31198e-014 -1.19271e-014
rhumerus -42.6016 -10.9975 -84.6645
rradius 27.5567
rwrist 20.6743
rhand -14.8662 -6.3535
rfingers 7.12502
rthumb 11.2938 -36.0294
lclavicle -1.31198e-014 -1.19271e-014
lhumerus -47.8289 -4.0819 90.6453
lradius 35.8566
lwrist 39.6143
lhand -19.4346 -8.49956
lfingers 7.12502
lthumb 6.88567 21.3685
rfemur -20.2994 -3.13051 27.3752
rtibia 28.3914
rfoot -19.5032 -2.23336
rtoes -15.1634
lfemur -26.8558 -2.32618 -13.4457
ltibia 33.9675
lfoot -22.8463 0.512513
ltoes -21.6084
913
root 20.1707 15.8333 26.3678 176.924 -72.8988 -164.179
lowerback -9.74718 4.29038 5.77307
upperback -9.9678 4.74669 -0.801875
thorax -4.48189 1.75249 -3.74631
lowerneck 11.8299 -7.18531 -31.6797
upperneck 8.40705 -18.3984 35.8142
head 7.29579 -10.9314 18.1254
rclavicle -3.15074e-014 -9.54166e-015
rhumerus -43.1429 -10.3961 -85.4208
rradius 27.8142
rwrist 20.116
rhand -14.6188 -5.99022
rfingers 7.12502
rthumb 11.5324 -35.653
lclavicle -3.15074e-014 -9.54166e-015
lhumerus -48.4051 -4.56662 90.9447
lradius 36.2644
lwrist 39.8376
lhand -18.2714 -8.49645
lfingers 7.12502
lthumb 8.0084 21.3318
rfemur -20.1914 -3.72381 27.4752
rtibia 27.9818
rfoot -19.489 -1.85666
rtoes -15.041
lfemur -26.937 -1.71924 -13.4925
ltibia 33.7321
lfoot -22.2866 0.12537
ltoes -21.7518
914
root 20.1536 15.8434 26.3666 176.613 -73.1922 -163.738
lowerback -9.88603 4.32498 5.87812
upperback -10.0628 4.76823 -0.838811
thorax -4.49686 1.7489 -3.83588
lowerneck 11.9514 -7.25016 -31.6952
upperneck 8.22714 -18.4811 35.8217
head 7.25586 -10.9777 18.1077
rclavicle -1.36167e-014 -1.98785e-015
rhumerus -43.6297 -9.76467 -86.2186
rradius 28.0682
rwrist 19.5907
rhand -14.3316 -5.60747
rfingers 7.12502
rthumb 11.8093 -35.2545
lclavicle -1.36167e-014 -1.98785e-015
lhumerus -48.9357 -5.0111 91.2107
lradius 36.659
lwrist 40.0601
lhand -17.098 -8.46042
lfingers 7.12502
lthumb 9.14082 21.3215
rfemur -20.0689 -4.35331 27.5818
rtibia 27.5901
rfoot -19.492 -1.43487
rtoes -14.9056
lfemur -27.0138 -1.18735 -13.5338
ltibia 33.5279
lfoot -21.7393 -0.440479
ltoes -21.6838
915
root 20.1375 15.8524 26.3662 176.259 -73.477 -163.277
lowerback -10.0085 4.35484 5.9847
upperback -10.1312 4.78662 -0.866109
thorax -4.49295 1.74632 -3.91656
lowerneck 12.0716 -7.31375 -31.7062
upperneck 8.00332 -18.5494 35.8473
head 7.1991 -11.0157 18.0984
rclavicle 5.56597e-015 -7.95139e-016
rhumerus -44.0468 -9.08034 -87.0552
rradius 28.3083
rwrist 19.091
rhand -13.992 -5.20208
rfingers 7.12502
rthumb 12.1368 -34.83
lclavicle 5.56597e-015 -7.95139e-016
lhumerus -49.4024 -5.38859 91.4328
lradius 37.0292
lwrist 40.2744
lhand -15.9627 -8.42125
lfingers 7.12502
lthumb 10.2361 21.3097
rfemur -19.9371 -5.01219 27.6913
rtibia 27.2167
rfoot -19.5077 -0.976113
rtoes -14.7681
lfemur -27.0844 -0.773067 -13.5637
ltibia 33.3553
lfoot -21.2449 -1.09696
ltoes -21.3999
916
root 20.1226 15.8602 26.3666 175.853 -73.7501 -162.789
lowerback -10.1046 4.38008 6.09861
upperback -10.1768 4.80239 -0.886919
thorax -4.47931 1.74417 -3.99563
lowerneck 12.1881 -7.37397 -31.7147
upperneck 7.74745 -18.6049 35.8942
head 7.13118 -11.0474 18.1007
rclavicle 6.95746e-015 7.15625e-015
rhumerus -44.3982 -8.34167 -87.9258
rradius 28.5242
rwrist 18.6308
rhand -13.6172 -4.74665
rfingers 7.12502
rthumb 12.4982 -34.3529
lclavicle 6.95746e-015 7.15625e-015
lhumerus -49.8024 -5.68518 91.5901
lradius 37.3681
lwrist 40.4757
lhand -14.9046 -8.41009
lfingers 7.12502
lthumb 11.2567 21.2679
rfemur -19.795 -5.66941 27.8032
rtibia 26.8636
rfoot -19.5265 -0.505834
rtoes -14.6224
lfemur -27.1411 -0.501004 -13.573
ltibia 33.2141
lfoot -20.8331 -1.72681
ltoes -21.0154
917
root 20.1089 15.8671 26.3676 175.427 -74.015 -162.302
lowerback -10.1862 4.39623 6.20263
upperback -10.1962 4.80982 -0.896255
thorax -4.44776 1.74121 -4.05788
lowerneck 12.2916 -7.43302 -31.7234
upperneck 7.46499 -18.6473 35.9542
head 7.05467 -11.0713 18.11
rclavicle -4.08502e-014 -2.78299e-014
rhumerus -44.673 -7.52752 -88.8134
rradius 28.7086
rwrist 18.2018
rhand -13.2309 -4.22651
rfingers 7.12502
rthumb 12.8706 -33.8097
lclavicle -4.08502e-014 -2.78299e-014
lhumerus -50.1182 -5.87565 91.6734
lradius 37.6631
lwrist 40.6522
lhand -13.9852 -8.45131
lfingers 7.12502
lthumb 12.1433 21.1763
rfemur -19.6482 -6.30772 27.9081
rtibia 26.5361
rfoot -19.549 -0.0410711
rtoes -14.4681
lfemur -27.1811 -0.365537 -13.5676
ltibia 33.0985
lfoot -20.5122 -2.25704
ltoes -20.6103
918
root 20.0965 15.8733 26.3698 175 -74.2763 -161.84
lowerback -10.2394 4.40268 6.30295
upperback -10.1974 4.80854 -0.898616
thorax -4.4137 1.73587 -4.1127
lowerneck 12.3859 -7.48625 -31.7453
upperneck 7.17069 -18.6778 36.0263
head 6.97518 -11.0892 18.1305
rclavicle -2.13694e-014 -2.78299e-014
rhumerus -44.8919 -6.6793 -89.6816
rradius 28.8601
rwrist 17.8401
rhand -12.7142 -3.58435
rfingers 7.12502
rthumb 13.3687 -33.1355
lclavicle -2.13694e-014 -2.78299e-014
lhumerus -50.3594 -5.95478 91.6801
lradius 37.9112
lwrist 40.8025
lhand -13.2519 -8.53916
lfingers 7.12502
lthumb 12.8504 21.0453
rfemur -19.4993 -6.94113 27.9961
rtibia 26.2412
rfoot -19.5775 0.42609
rtoes -14.2971
lfemur -27.1984 -0.370625 -13.5555
ltibia 33.001
lfoot -20.2603 -2.63329
ltoes -20.2999
919
root 20.0853 15.8785 26.3729 174.612 -74.5354 -161.45
lowerback -10.2633 4.39789 6.38117
upperback -10.1781 4.79796 -0.89652
thorax -4.37632 1.72908 -4.15258
lowerneck 12.4724 -7.53619 -31.771
upperneck 6.86734 -18.6989 36.1041
head 6.89229 -11.102 18.1559
rclavicle 6.4605e-015 1.07344e-014
rhumerus -45.0528 -5.79268 -90.5225
rradius 28.9768
rwrist 17.4952
rhand -12.0552 -2.81359
rfingers 7.12502
rthumb 14.0038 -32.3219
lclavicle 6.4605e-015 1.07344e-014
lhumerus -50.5243 -5.92878 91.6135
lradius 38.108
lwrist 40.9229
lhand -12.7551 -8.65115
lfingers 7.12502
lthumb 13.3293 20.9025
rfemur -19.3406 -7.53521 28.0495
rtibia 25.9847
rfoot -19.6081 0.855577
rtoes -14.1229
lfemur -27.1819 -0.484348 -13.5536
ltibia 32.9133
lfoot -20.059 -2.8553
ltoes -20.1262
920
root 20.0752 15.883 26.3768 174.279 -74.7979 -161.147
lowerback -10.2607 4.38246 6.4362
upperback -10.1411 4.77851 -0.894865
thorax -4.33672 1.72075 -4.18196
lowerneck 12.5553 -7.58231 -31.799
upperneck 6.55908 -18.7128 36.1877
head 6.80722 -11.1114 18.1865
rclavicle -3.20043e-014 -2.78299e-014
rhumerus -45.1619 -5.01005 -91.2542
rradius 29.0628
rwrist 17.2666
rhand -11.1509 -1.91442
rfingers 7.12502
rthumb 14.8751 -31.3604
lclavicle -3.20043e-014 -2.78299e-014
lhumerus -50.6203 -5.81864 91.4845
lradius 38.2549
lwrist 41.0198
lhand -12.5153 -8.75339
lfingers 7.12502
lthumb 13.5604 20.785
rfemur -19.1752 -8.08818 28.0638
rtibia 25.7706
rfoot -19.6412 1.23809
rtoes -13.9383
lfemur -27.1344 -0.66975 -13.5728
ltibia 32.8296
lfoot -19.9051 -2.98758
ltoes -20.0648
